<?xml version="1.0" encoding="UTF-8"?>
<svg xmlns="http://www.w3.org/2000/svg" viewBox="0 0 512 512" role="img" aria-label="Barely Blue">
  <defs>
    <linearGradient id="g" x1="0" y1="0" x2="1" y2="1">
      <stop offset="0" stop-color="#020817"/>
      <stop offset="1" stop-color="#0b1b4a"/>
    </linearGradient>
  </defs>
  <rect width="512" height="512" rx="112" fill="url(#g)"/>
  <path d="M156 334c0-82 56-150 150-150 32 0 60 7 83 20-13-42-52-72-102-72-70 0-118 46-118 120 0 36 12 66 34 90-30-10-47-31-47-8z" fill="#ffffff" fill-opacity="0.95"/>
  <path d="M342 176c-34-21-78-22-114-2-40 22-64 66-64 116 0 28 7 53 20 74 17 26 45 41 78 41 64 0 106-51 106-123 0-45-10-83-26-106z" fill="#ffffff" fill-opacity="0.12"/>
  <path d="M214 352c0-54 30-92 76-92 44 0 70 34 70 86 0 60-28 98-80 98-44 0-66-30-66-92z" fill="#ffffff" fill-opacity="0.18"/>
</svg>
